<svg width="1174" height="656" viewBox="0 0 1174 656" fill="none" xmlns="http://www.w3.org/2000/svg">
<path d="M1174 0.625H9.99976V655.375H1174V0.625Z" fill="url(#paint0_linear)"/>
<mask id="mask0" mask-type="alpha" maskUnits="userSpaceOnUse" x="10" y="0" width="1165" height="656">
<path d="M1174 0.625H10.0002V655.375H1174V0.625Z" fill="url(#paint1_linear)"/>
</mask>
<g mask="url(#mask0)">
<g style="mix-blend-mode:overlay">
<path fill-rule="evenodd" clip-rule="evenodd" d="M-50.2129 653.934C-60.8665 643.281 -60.8665 626.007 -50.2129 615.353C-17.4572 582.597 45.5213 519.619 45.5213 519.619C45.5213 519.619 -17.4572 456.64 -50.2129 423.884C-60.8665 413.23 -60.8665 395.957 -50.2129 385.303C-29.8878 364.978 1.93551 333.155 22.26 312.83C32.9143 302.176 50.1876 302.176 60.8418 312.83C93.5975 345.585 156.576 408.564 156.576 408.564C156.576 408.564 219.554 345.585 252.31 312.83C262.964 302.176 280.238 302.176 290.892 312.83C311.216 333.155 343.04 364.978 363.365 385.303C374.019 395.957 374.019 413.23 363.365 423.884C330.609 456.64 267.631 519.619 267.631 519.619C267.631 519.619 330.609 582.597 363.365 615.353C374.019 626.007 374.019 643.281 363.365 653.934C343.04 674.259 311.216 706.083 290.892 726.408C280.238 737.061 262.964 737.061 252.31 726.408C219.554 693.652 156.576 630.673 156.576 630.673C156.576 630.673 93.5975 693.652 60.8418 726.408C50.1876 737.061 32.9143 737.061 22.26 726.408C1.93551 706.083 -29.8878 674.259 -50.2129 653.934Z" fill="url(#paint2_linear)"/>
</g>
<g style="mix-blend-mode:overlay">
<path fill-rule="evenodd" clip-rule="evenodd" d="M464.688 53.469C464.688 38.4025 476.902 26.1878 491.969 26.1878C531.681 26.1878 600.726 26.1878 600.726 26.1878V-82.5686C600.726 -97.6357 612.94 -109.85 628.007 -109.85H704.787C719.853 -109.85 732.068 -97.6357 732.068 -82.5686C732.068 -42.8568 732.068 26.1878 732.068 26.1878H840.824C855.892 26.1878 868.106 38.4025 868.106 53.469C868.106 75.973 868.106 107.745 868.106 130.249C868.106 145.316 855.892 157.53 840.824 157.53C801.113 157.53 732.068 157.53 732.068 157.53V266.287C732.068 281.354 719.853 293.568 704.787 293.568C682.283 293.568 650.51 293.568 628.007 293.568C612.94 293.568 600.726 281.354 600.726 266.287C600.726 226.575 600.726 157.53 600.726 157.53C600.726 157.53 531.681 157.53 491.969 157.53C476.902 157.53 464.688 145.316 464.688 130.249V53.469Z" fill="url(#paint3_linear)"/>
</g>
<g style="mix-blend-mode:overlay">
<path d="M975.21 765.908C1111.2 765.908 1221.44 655.664 1221.44 519.673C1221.44 383.681 1111.2 273.438 975.21 273.438C839.218 273.438 728.975 383.681 728.975 519.673C728.975 655.664 839.218 765.908 975.21 765.908Z" fill="url(#paint4_linear)"/>
</g>
</g>
<defs>
<linearGradient id="paint0_linear" x1="417.337" y1="53.9247" x2="919.05" y2="655.375" gradientUnits="userSpaceOnUse">
<stop stop-color="#434593"/>
<stop offset="1" stop-color="#5C4193"/>
</linearGradient>
<linearGradient id="paint1_linear" x1="417.337" y1="53.9247" x2="919.05" y2="655.375" gradientUnits="userSpaceOnUse">
<stop stop-color="#434593"/>
<stop offset="1" stop-color="#5C4193"/>
</linearGradient>
<linearGradient id="paint2_linear" x1="114.694" y1="589.688" x2="305.647" y2="327.588" gradientUnits="userSpaceOnUse">
<stop stop-color="white" stop-opacity="0.55"/>
<stop offset="1" stop-color="white" stop-opacity="0"/>
</linearGradient>
<linearGradient id="paint3_linear" x1="765.02" y1="-23.6549" x2="591.306" y2="273.412" gradientUnits="userSpaceOnUse">
<stop stop-color="white" stop-opacity="0.55"/>
<stop offset="1" stop-color="white" stop-opacity="0"/>
</linearGradient>
<linearGradient id="paint4_linear" x1="1221.44" y1="373.63" x2="777.936" y2="577.028" gradientUnits="userSpaceOnUse">
<stop stop-color="white" stop-opacity="0.55"/>
<stop offset="1" stop-color="white" stop-opacity="0"/>
</linearGradient>
</defs>
</svg>
