<svg width="75" height="75" viewBox="0 0 75 75" fill="none" xmlns="http://www.w3.org/2000/svg">
<path d="M60.9375 4.6875H14.0625C12.7661 4.6875 11.7188 5.73486 11.7188 7.03125V67.9688C11.7188 69.2651 12.7661 70.3125 14.0625 70.3125H60.9375C62.2339 70.3125 63.2812 69.2651 63.2812 67.9688V7.03125C63.2812 5.73486 62.2339 4.6875 60.9375 4.6875ZM16.9922 9.96094H58.0078V25.1953H16.9922V9.96094ZM58.0078 45.1172H16.9922V29.8828H58.0078V45.1172ZM58.0078 65.0391H16.9922V49.8047H58.0078V65.0391ZM22.2656 17.5781C22.2656 18.3551 22.5743 19.1003 23.1237 19.6497C23.6731 20.1992 24.4183 20.5078 25.1953 20.5078C25.9723 20.5078 26.7175 20.1992 27.2669 19.6497C27.8163 19.1003 28.125 18.3551 28.125 17.5781C28.125 16.8011 27.8163 16.0559 27.2669 15.5065C26.7175 14.9571 25.9723 14.6484 25.1953 14.6484C24.4183 14.6484 23.6731 14.9571 23.1237 15.5065C22.5743 16.0559 22.2656 16.8011 22.2656 17.5781ZM22.2656 37.5C22.2656 38.277 22.5743 39.0222 23.1237 39.5716C23.6731 40.121 24.4183 40.4297 25.1953 40.4297C25.9723 40.4297 26.7175 40.121 27.2669 39.5716C27.8163 39.0222 28.125 38.277 28.125 37.5C28.125 36.723 27.8163 35.9778 27.2669 35.4284C26.7175 34.879 25.9723 34.5703 25.1953 34.5703C24.4183 34.5703 23.6731 34.879 23.1237 35.4284C22.5743 35.9778 22.2656 36.723 22.2656 37.5ZM22.2656 57.4219C22.2656 58.1989 22.5743 58.9441 23.1237 59.4935C23.6731 60.0429 24.4183 60.3516 25.1953 60.3516C25.9723 60.3516 26.7175 60.0429 27.2669 59.4935C27.8163 58.9441 28.125 58.1989 28.125 57.4219C28.125 56.6449 27.8163 55.8997 27.2669 55.3503C26.7175 54.8008 25.9723 54.4922 25.1953 54.4922C24.4183 54.4922 23.6731 54.8008 23.1237 55.3503C22.5743 55.8997 22.2656 56.6449 22.2656 57.4219Z" fill="#00847A"/>
</svg>
