<svg width="40" height="40" viewBox="0 0 40 40" fill="none" xmlns="http://www.w3.org/2000/svg">
<g clip-path="url(#clip0)">
<path d="M38.4757 27.6464C42.7027 17.4415 37.8566 5.74215 27.6517 1.51514C17.4469 -2.71186 5.74749 2.13417 1.52049 12.3391C-2.70652 22.544 2.13952 34.2433 12.3444 38.4703C22.5493 42.6973 34.2487 37.8513 38.4757 27.6464Z" fill="white" fill-opacity="0.21"/>
<path d="M27.2833 25.3167L28.1333 20.0833H22.0833V16.0833C22.0833 14.4167 22.5166 13.2667 24.8833 13.2667H28.3333V7.98333C26.9179 7.68985 25.4785 7.52805 24.0333 7.5C19.6833 7.5 16.8 10.3667 16.8 15.25V20.0833H11.6666V25.3167H16.9V39.75C17.9251 39.9147 18.9617 39.9983 20 40C20.7 40 21.4 40 22.0833 39.9V25.3167H27.2833Z" fill="white"/>
</g>
<defs>
<clipPath id="clip0">
<rect width="40" height="40" fill="white"/>
</clipPath>
</defs>
</svg>
