<svg width="40" height="40" viewBox="0 0 40 40" fill="none" xmlns="http://www.w3.org/2000/svg">
<path d="M20 40C31.0457 40 40 31.0457 40 20C40 8.9543 31.0457 0 20 0C8.9543 0 0 8.9543 0 20C0 31.0457 8.9543 40 20 40Z" fill="white" fill-opacity="0.21"/>
<path d="M25.7167 32.5H14.2667C12.472 32.5 10.7509 31.7871 9.48191 30.5181C8.21291 29.2491 7.5 27.528 7.5 25.7333V14.2667C7.5 12.472 8.21291 10.7509 9.48191 9.48191C10.7509 8.21291 12.472 7.5 14.2667 7.5H25.7167C27.5128 7.49999 29.2357 8.21238 30.5073 9.4809C31.779 10.7494 32.4956 12.4705 32.5 14.2667V25.7333C32.4956 27.5295 31.779 29.2506 30.5073 30.5191C29.2357 31.7876 27.5128 32.5 25.7167 32.5ZM14.2667 9.58333C13.0275 9.58774 11.8405 10.0831 10.9658 10.9609C10.0911 11.8387 9.59999 13.0275 9.6 14.2667V25.7333C9.59999 26.9725 10.0911 28.1613 10.9658 29.0391C11.8405 29.9169 13.0275 30.4123 14.2667 30.4167H25.7167C26.9603 30.4167 28.1532 29.9238 29.0342 29.046C29.9151 28.1681 30.4123 26.977 30.4167 25.7333V14.2667C30.4123 13.023 29.9151 11.8319 29.0342 10.954C28.1532 10.0762 26.9603 9.58333 25.7167 9.58333H14.2667Z" fill="white"/>
<path d="M19.9998 26.25C18.7644 26.2467 17.5577 25.8773 16.5321 25.1886C15.5064 24.4998 14.708 23.5225 14.2375 22.3802C13.767 21.2379 13.6456 19.9818 13.8886 18.7705C14.1316 17.5592 14.7282 16.4471 15.603 15.5747C16.4777 14.7023 17.5914 14.1087 18.8033 13.8689C20.0152 13.6291 21.271 13.7538 22.4121 14.2273C23.5532 14.7009 24.5283 15.502 25.2143 16.5294C25.9003 17.5568 26.2665 18.7646 26.2665 20C26.2665 20.8221 26.1043 21.6362 25.7891 22.3956C25.474 23.155 25.0121 23.8447 24.43 24.4253C23.8479 25.0059 23.1569 25.4659 22.3967 25.779C21.6365 26.0921 20.822 26.2522 19.9998 26.25ZM19.9998 15.8333C19.1757 15.8333 18.3701 16.0777 17.6849 16.5355C16.9997 16.9934 16.4657 17.6441 16.1503 18.4055C15.835 19.1668 15.7524 20.0046 15.9132 20.8129C16.074 21.6211 16.4708 22.3635 17.0535 22.9463C17.6363 23.529 18.3787 23.9258 19.1869 24.0866C19.9952 24.2474 20.833 24.1648 21.5943 23.8495C22.3557 23.5341 23.0064 23.0001 23.4643 22.3149C23.9221 21.6297 24.1665 20.8241 24.1665 20C24.1665 18.8949 23.7275 17.8351 22.9461 17.0537C22.1647 16.2723 21.1049 15.8333 19.9998 15.8333Z" fill="white"/>
<path d="M26.6334 11.9333C26.9169 11.9333 27.194 12.0174 27.4297 12.1748C27.6654 12.3323 27.8491 12.5562 27.9576 12.8181C28.0661 13.08 28.0945 13.3682 28.0392 13.6463C27.9839 13.9243 27.8474 14.1797 27.6469 14.3801C27.4465 14.5806 27.1911 14.7171 26.913 14.7724C26.635 14.8277 26.3468 14.7993 26.0849 14.6909C25.823 14.5824 25.5991 14.3987 25.4416 14.1629C25.2841 13.9272 25.2001 13.6501 25.2001 13.3666C25.2001 12.9865 25.3511 12.6219 25.6199 12.3531C25.8887 12.0843 26.2533 11.9333 26.6334 11.9333Z" fill="white"/>
</svg>

