<svg width="40" height="40" viewBox="0 0 40 40" fill="none" xmlns="http://www.w3.org/2000/svg">
<g clip-path="url(#clip0)">
<path d="M38.486 27.6386C42.713 17.4338 37.867 5.73439 27.6621 1.50739C17.4572 -2.71961 5.75787 2.12642 1.53087 12.3313C-2.69614 22.5362 2.14989 34.2356 12.3548 38.4626C22.5597 42.6896 34.259 37.8435 38.486 27.6386Z" fill="white" fill-opacity="0.21"/>
<path d="M13.7837 29.9833H9.11699V14.9833H13.7837V29.9833ZM11.4503 12.9333C10.9116 12.9366 10.3841 12.7796 9.93479 12.4824C9.48549 12.1852 9.13471 11.761 8.92703 11.264C8.71935 10.7669 8.66414 10.2193 8.76843 9.69075C8.87273 9.16222 9.1318 8.67663 9.51274 8.29569C9.89367 7.91476 10.3793 7.65569 10.9078 7.55139C11.4363 7.4471 11.9839 7.50231 12.481 7.70999C12.9781 7.91767 13.4022 8.26845 13.6994 8.71775C13.9967 9.16704 14.1536 9.69457 14.1503 10.2333C14.1503 10.9494 13.8659 11.6361 13.3595 12.1425C12.8532 12.6488 12.1664 12.9333 11.4503 12.9333ZM31.267 29.9833H26.6003V22.6833C26.6003 21.0166 26.6003 18.7166 24.167 18.7166C21.7337 18.7166 21.3837 20.5999 21.3837 22.5666V29.9833H16.717V14.9833H21.1837V17.0333C21.6424 16.2652 22.2988 15.6342 23.0844 15.2062C23.8701 14.7782 24.7562 14.5688 25.6503 14.6C30.367 14.6 31.267 17.7166 31.267 21.7666V30V29.9833Z" fill="white"/>
</g>
<defs>
<clipPath id="clip0">
<rect width="40" height="40" fill="white"/>
</clipPath>
</defs>
</svg>
