<svg width="75" height="75" viewBox="0 0 75 75" fill="none" xmlns="http://www.w3.org/2000/svg">
<path d="M67.9688 11.7188H7.03125C5.73486 11.7188 4.6875 12.7661 4.6875 14.0625V60.9375C4.6875 62.2339 5.73486 63.2812 7.03125 63.2812H67.9688C69.2651 63.2812 70.3125 62.2339 70.3125 60.9375V14.0625C70.3125 12.7661 69.2651 11.7188 67.9688 11.7188ZM65.0391 19.834V58.0078H9.96094V19.834L7.93945 18.2593L10.8179 14.5605L13.9526 16.9995H61.0547L64.1895 14.5605L67.0679 18.2593L65.0391 19.834ZM61.0547 16.9922L37.5 35.3027L13.9453 16.9922L10.8105 14.5532L7.93213 18.252L9.95361 19.8267L34.9731 39.2798C35.6927 39.8388 36.5779 40.1422 37.489 40.1422C38.4002 40.1422 39.2854 39.8388 40.0049 39.2798L65.0391 19.834L67.0605 18.2593L64.1821 14.5605L61.0547 16.9922Z" fill="#6E61BF"/>
</svg>
