<svg width="75" height="75" viewBox="0 0 75 75" fill="none" xmlns="http://www.w3.org/2000/svg">
<path d="M67.9688 11.7919H51.2109C47.6147 11.7919 44.0991 12.8246 41.0742 14.7729L37.5 17.0653L33.9258 14.7729C30.9039 12.825 27.3843 11.79 23.7891 11.7919H7.03125C5.73486 11.7919 4.6875 12.8393 4.6875 14.1357V55.7372C4.6875 57.0336 5.73486 58.081 7.03125 58.081H23.7891C27.3853 58.081 30.9009 59.1137 33.9258 61.0619L37.1777 63.1566C37.2729 63.2152 37.3828 63.2519 37.4927 63.2519C37.6025 63.2519 37.7124 63.2226 37.8076 63.1566L41.0596 61.0619C44.0918 59.1137 47.6147 58.081 51.2109 58.081H67.9688C69.2651 58.081 70.3125 57.0336 70.3125 55.7372V14.1357C70.3125 12.8393 69.2651 11.7919 67.9688 11.7919ZM23.7891 52.8075H9.96094V17.0653H23.7891C26.3818 17.0653 28.9014 17.8051 31.0767 19.204L34.6509 21.4965L35.1562 21.8261V55.664C31.6699 53.789 27.7734 52.8075 23.7891 52.8075ZM65.0391 52.8075H51.2109C47.2266 52.8075 43.3301 53.789 39.8438 55.664V21.8261L40.3491 21.4965L43.9233 19.204C46.0986 17.8051 48.6182 17.0653 51.2109 17.0653H65.0391V52.8075ZM29.0698 26.4403H15.4614C15.1758 26.4403 14.9414 26.6894 14.9414 26.9897V30.2856C14.9414 30.5858 15.1758 30.8349 15.4614 30.8349H29.0625C29.3481 30.8349 29.5825 30.5858 29.5825 30.2856V26.9897C29.5898 26.6894 29.3555 26.4403 29.0698 26.4403ZM45.4102 26.9897V30.2856C45.4102 30.5858 45.6445 30.8349 45.9302 30.8349H59.5312C59.8169 30.8349 60.0513 30.5858 60.0513 30.2856V26.9897C60.0513 26.6894 59.8169 26.4403 59.5312 26.4403H45.9302C45.6445 26.4403 45.4102 26.6894 45.4102 26.9897ZM29.0698 36.6942H15.4614C15.1758 36.6942 14.9414 36.9433 14.9414 37.2436V40.5395C14.9414 40.8398 15.1758 41.0888 15.4614 41.0888H29.0625C29.3481 41.0888 29.5825 40.8398 29.5825 40.5395V37.2436C29.5898 36.9433 29.3555 36.6942 29.0698 36.6942ZM59.5386 36.6942H45.9302C45.6445 36.6942 45.4102 36.9433 45.4102 37.2436V40.5395C45.4102 40.8398 45.6445 41.0888 45.9302 41.0888H59.5312C59.8169 41.0888 60.0513 40.8398 60.0513 40.5395V37.2436C60.0586 36.9433 59.8242 36.6942 59.5386 36.6942Z" fill="#6E61BF"/>
</svg>
