<svg width="40" height="40" viewBox="0 0 40 40" fill="none" xmlns="http://www.w3.org/2000/svg">
<g clip-path="url(#clip0)">
<path d="M38.6662 27.175C42.6373 16.8678 37.5008 5.29297 27.1936 1.32195C16.8864 -2.64907 5.31158 2.48742 1.34056 12.7946C-2.63046 23.1018 2.50603 34.6766 12.8132 38.6476C23.1204 42.6186 34.6952 37.4822 38.6662 27.175Z" fill="white" fill-opacity="0.21"/>
<path d="M32.3001 12.3666C31.3793 12.778 30.4016 13.0477 29.4001 13.1666C30.4493 12.5276 31.2355 11.5345 31.6168 10.3666C30.6291 10.959 29.5465 11.3762 28.4168 11.6C27.733 10.831 26.8287 10.2917 25.8271 10.0557C24.8255 9.8197 23.7755 9.89847 22.8203 10.2813C21.8651 10.6641 21.0513 11.3322 20.49 12.1946C19.9286 13.057 19.6469 14.0716 19.6835 15.1C19.6794 15.4865 19.7185 15.8722 19.8001 16.25C17.791 16.1415 15.827 15.6121 14.0354 14.6962C12.2439 13.7804 10.6647 12.4984 9.40014 10.9333C8.76399 12.0353 8.57189 13.3383 8.86297 14.577C9.15405 15.8156 9.90642 16.8967 10.9668 17.6C10.1609 17.5737 9.37262 17.3566 8.66681 16.9666C8.6454 18.1434 9.03983 19.2901 9.78066 20.2047C10.5215 21.1193 11.5612 21.7432 12.7168 21.9666C12.288 22.0861 11.8452 22.1477 11.4001 22.15C11.0808 22.1515 10.7622 22.118 10.4501 22.05C10.7637 23.0595 11.3891 23.9436 12.2365 24.5755C13.0839 25.2073 14.1098 25.5543 15.1668 25.5666C13.3708 26.9642 11.1591 27.721 8.88347 27.7166C8.48386 27.7415 8.08308 27.7415 7.68347 27.7166C9.85334 29.1068 12.3572 29.8877 14.9326 29.9775C17.508 30.0674 20.0602 29.4629 22.3216 28.2273C24.5831 26.9918 26.4706 25.1707 27.7864 22.9549C29.1021 20.7392 29.7977 18.2103 29.8001 15.6333C29.8001 15.4166 29.8001 15.2 29.8001 14.9833C30.7855 14.2649 31.6373 13.3792 32.3168 12.3666" fill="white"/>
</g>
<defs>
<clipPath id="clip0">
<rect width="40" height="40" fill="white"/>
</clipPath>
</defs>
</svg>
