<svg width="40" height="40" viewBox="0 0 40 40" fill="none" xmlns="http://www.w3.org/2000/svg">
<g clip-path="url(#clip0)">
<path d="M39.4689 24.5776C42.0062 13.8273 35.3482 3.05551 24.5979 0.518203C13.8476 -2.0191 3.07584 4.63886 0.538536 15.3892C-1.99877 26.1395 4.65919 36.9113 15.4095 39.4486C26.1598 41.9859 36.9316 35.3279 39.4689 24.5776Z" fill="white" fill-opacity="0.21"/>
<path d="M32.2497 15C32.1317 14.1038 31.7939 13.2507 31.2664 12.5167C30.6038 11.8512 29.7055 11.4739 28.7664 11.4667C25.2664 11.2167 20.0164 11.2167 20.0164 11.2167C20.0164 11.2167 14.7664 11.2167 11.2664 11.4667C10.3273 11.4739 9.42902 11.8512 8.76641 12.5167C8.23523 13.2487 7.89704 14.1028 7.78308 15C7.62784 16.3446 7.54438 17.6965 7.53308 19.05V20.95C7.54438 22.3035 7.62784 23.6554 7.78308 25C7.89552 25.8925 8.23398 26.7416 8.76641 27.4667C9.53139 28.1438 10.5117 28.5277 11.5331 28.55C13.5331 28.7333 20.0331 28.8 20.0331 28.8C20.0331 28.8 25.2831 28.8 28.7831 28.5333C29.2496 28.5294 29.7107 28.4331 30.1398 28.25C30.5688 28.0669 30.9574 27.8007 31.2831 27.4667C31.8183 26.7415 32.1622 25.8932 32.2831 25C32.4383 23.6554 32.5218 22.3035 32.5331 20.95V19.05C32.5218 17.6965 32.4383 16.3446 32.2831 15H32.2497ZM17.0997 23.5667V15.9L24.4831 19.75L17.0997 23.5667Z" fill="white"/>
</g>
<defs>
<clipPath id="clip0">
<rect width="40" height="40" fill="white"/>
</clipPath>
</defs>
</svg>
